<?xml version="1.0" encoding="UTF-8" standalone="no"?>
<!-- Created with Inkscape (http://www.inkscape.org/) -->

<svg
   width="47.46619mm"
   height="47.625mm"
   viewBox="0 0 47.46619 47.625"
   version="1.1"
   id="svg1"
   xml:space="preserve"
   xmlns:inkscape="http://www.inkscape.org/namespaces/inkscape"
   xmlns:sodipodi="http://sodipodi.sourceforge.net/DTD/sodipodi-0.dtd"
   xmlns:xlink="http://www.w3.org/1999/xlink"
   xmlns="http://www.w3.org/2000/svg"
   xmlns:svg="http://www.w3.org/2000/svg"><sodipodi:namedview
     id="namedview1"
     pagecolor="#505050"
     bordercolor="#eeeeee"
     borderopacity="1"
     inkscape:showpageshadow="0"
     inkscape:pageopacity="0"
     inkscape:pagecheckerboard="0"
     inkscape:deskcolor="#505050"
     inkscape:document-units="mm" /><defs
     id="defs1"><linearGradient
       id="linearGradient40"
       inkscape:collect="always"><stop
         style="stop-color:#ff7700;stop-opacity:0.78830647;"
         offset="0"
         id="stop39" /><stop
         style="stop-color:#d3d3d3;stop-opacity:1;"
         offset="1"
         id="stop40" /></linearGradient><linearGradient
       id="linearGradient4"
       inkscape:collect="always"><stop
         style="stop-color:#ffe600;stop-opacity:1;"
         offset="0"
         id="stop4" /><stop
         style="stop-color:#d3d3d3;stop-opacity:1;"
         offset="0.80092591"
         id="stop5" /></linearGradient><linearGradient
       inkscape:collect="always"
       xlink:href="#linearGradient40"
       id="linearGradient5"
       x1="102.18918"
       y1="89.619064"
       x2="123.11971"
       y2="71.170471"
       gradientUnits="userSpaceOnUse" /><linearGradient
       inkscape:collect="always"
       xlink:href="#linearGradient4"
       id="linearGradient39"
       gradientUnits="userSpaceOnUse"
       x1="102.18918"
       y1="89.619064"
       x2="123.11971"
       y2="71.170471" /></defs><g
     inkscape:label="Layer 1"
     inkscape:groupmode="layer"
     id="layer1"
     transform="translate(4.3349401,-228.30816)"><g
       id="g3"
       transform="translate(-106.52412,162.5016)"
       style="fill:url(#linearGradient5)"
       inkscape:export-filename="note-slash3.svg"
       inkscape:export-xdpi="96"
       inkscape:export-ydpi="96"><path
         style="fill:url(#linearGradient39)"
         d="M 124.53653,91.088844 C 103.00388,69.560653 102.18918,68.710589 102.18918,67.771421 c 0,-1.175873 0.81882,-1.964857 2.03916,-1.964857 0.72146,0 2.02398,1.205068 11.2027,10.364504 l 10.38632,10.364504 0.0789,-6.919358 0.0789,-6.919358 0.68834,-0.687882 c 0.56481,-0.564444 1.7043,-0.944045 6.35,-2.115385 3.11391,-0.785127 5.99824,-1.430583 6.40962,-1.434347 0.4802,-0.0044 1.02482,0.270015 1.52135,0.766552 l 0.7734,0.773398 v 5.032682 c 0,6.425045 0.24816,6.05297 -4.89479,7.338917 -2.03729,0.509405 -4.15065,1.043562 -4.69635,1.187014 l -0.99219,0.260822 v 4.016399 4.016399 l 9.26042,9.284475 c 8.82074,8.84366 9.26041,9.33084 9.26041,10.2609 0,1.23797 -0.74987,2.03476 -1.91494,2.03476 -0.78258,0 -2.78816,-1.93114 -23.20396,-22.342716 z m -5.44047,18.020076 c -2.69878,-0.89934 -4.98474,-2.79795 -5.88478,-4.8876 -0.6411,-1.48849 -0.56789,-4.16025 0.15493,-5.653381 1.13458,-2.343733 4.22905,-4.512607 6.94193,-4.865502 l 1.16917,-0.152087 4.83249,4.853846 4.8325,4.853844 -0.68045,1.36549 c -0.836,1.67762 -2.36858,3.09873 -4.29092,3.97881 -1.77254,0.81149 -5.38392,1.07008 -7.07487,0.50658 z"
         id="path3" /></g></g></svg>
